<?xml version="1.0" encoding="utf-8"?>
<!-- Generator: Adobe Illustrator 27.5.0, SVG Export Plug-In . SVG Version: 6.00 Build 0)  -->
<svg version="1.1" id="Layer_1" xmlns="http://www.w3.org/2000/svg" xmlns:xlink="http://www.w3.org/1999/xlink" x="0px" y="0px"
	 viewBox="0 0 667 288" style="enable-background:new 0 0 667 288;" xml:space="preserve">
<style type="text/css">
	.st0{fill:none;stroke:#A1A3A6;stroke-width:2.4347;stroke-miterlimit:10;}
	.st1{fill:#FFFFFF;}
	.st2{fill:#E6E7E8;}
	.st3{fill:none;stroke:#E6E7E8;stroke-width:2.4347;stroke-miterlimit:10;}
</style>
<line class="st0" x1="344.3" y1="112.1" x2="344.3" y2="178.1"/>
<g>
	<path class="st1" d="M279.2,167.7c-11.3,0-20.6-9.2-20.6-20.6c0-11.3,9.2-20.6,20.6-20.6c11.3,0,20.6,9.2,20.6,20.6
		C299.7,158.5,290.5,167.7,279.2,167.7 M279.2,116.2c-17.1,0-31,13.9-31,31v55.4h10.4v-32.3c5.5,4.9,12.7,7.8,20.6,7.8
		c17.1,0,31-13.9,31-31C310.1,130.1,296.2,116.2,279.2,116.2"/>
	<path class="st1" d="M189.7,147.2c0-11.3,9.2-20.6,20.6-20.6c11.3,0,20.6,9.2,20.6,20.6c0,11.3-9.2,20.6-20.6,20.6
		C198.9,167.7,189.7,158.5,189.7,147.2 M179.3,147.2c0,17.1,13.9,31,31,31c7.9,0,15.1-3,20.6-7.8v7.8h10.4v-31c0-17.1-13.9-31-31-31
		C193.1,116.2,179.3,130.1,179.3,147.2"/>
	<path class="st1" d="M124.1,147.1c0-11.4,9.2-20.6,20.6-20.6c6.8,0,12.8,3.3,16.6,8.4L124.3,150
		C124.1,149.1,124.1,148.1,124.1,147.1 M174.9,140.6c-3-14-15.5-24.5-30.3-24.5c-17.1,0-31,13.9-31,31c0,2.4,0.3,4.7,0.8,7L84,166.5
		V96.2H73.5v74.1c0,2.6,1.3,5,3.5,6.5c2.2,1.5,4.9,1.7,7.3,0.8l34-13.9c5.5,8.7,15.2,14.5,26.2,14.5c14.2,0,26.2-9.6,29.9-22.6
		h-11.1c-3.2,7.2-10.4,12.2-18.8,12.2c-6.6,0-12.5-3.2-16.3-8.1L174.9,140.6z"/>
</g>
<g>
	<path class="st2" d="M377.1,139v-17.9h9.4c1.2,0,2.2,0.3,3.1,0.8s1.6,1.2,2.2,2.1c0.5,0.9,0.8,1.9,0.8,3c0,1.1-0.3,2-0.8,2.9
		c-0.5,0.9-1.3,1.5-2.2,2c-0.9,0.5-2,0.7-3.1,0.7h-5v6.4H377.1z M381.5,128.9h4.5c0.6,0,1.2-0.2,1.6-0.6c0.4-0.4,0.6-0.9,0.6-1.5
		c0-0.6-0.2-1.1-0.6-1.5c-0.4-0.4-0.9-0.6-1.6-0.6h-4.5V128.9z"/>
	<path class="st2" d="M391.8,139l7.3-17.9h5l7.2,17.9h-4.8l-1.6-4.3h-7l-1.7,4.3H391.8z M399.4,131.1h4.3l-2.1-5.7L399.4,131.1z"/>
	<path class="st2" d="M415.5,139v-14h-5.9v-3.9h16.1v3.9h-5.9v14H415.5z"/>
	<path class="st2" d="M429,139v-17.9h9.1c1.2,0,2.3,0.2,3.3,0.7c1,0.5,1.7,1.2,2.2,2c0.5,0.9,0.8,1.8,0.8,3c0,1.1-0.3,2.1-0.9,3
		s-1.4,1.6-2.4,2l3.9,7.2h-4.9l-3.4-6.5h-3.3v6.5H429z M433.4,128.9h4.3c0.7,0,1.2-0.2,1.6-0.6c0.4-0.4,0.6-0.9,0.6-1.5
		c0-0.6-0.2-1.1-0.6-1.5c-0.4-0.4-1-0.6-1.6-0.6h-4.3V128.9z"/>
	<path class="st2" d="M456.9,139.2c-1.3,0-2.6-0.2-3.8-0.7c-1.2-0.5-2.2-1.1-3-2c-0.9-0.8-1.5-1.8-2-2.9s-0.7-2.3-0.7-3.6
		c0-1.3,0.2-2.5,0.7-3.6c0.5-1.1,1.2-2.1,2-2.9c0.9-0.8,1.9-1.5,3-2c1.2-0.5,2.4-0.7,3.8-0.7s2.6,0.2,3.8,0.7c1.2,0.5,2.2,1.1,3,2
		c0.9,0.8,1.5,1.8,2,2.9c0.5,1.1,0.7,2.3,0.7,3.6c0,1.3-0.2,2.5-0.7,3.6s-1.2,2.1-2,2.9c-0.9,0.8-1.9,1.5-3,2
		C459.5,139,458.2,139.2,456.9,139.2z M456.9,135.2c0.7,0,1.4-0.1,2-0.4c0.6-0.3,1.1-0.6,1.6-1.1c0.5-0.5,0.8-1,1.1-1.6
		c0.3-0.6,0.4-1.3,0.4-2.1c0-0.7-0.1-1.4-0.4-2.1c-0.3-0.6-0.6-1.2-1.1-1.6c-0.5-0.5-1-0.8-1.6-1.1s-1.3-0.4-2-0.4
		c-0.7,0-1.4,0.1-2,0.4c-0.6,0.3-1.1,0.6-1.6,1.1s-0.8,1-1.1,1.6c-0.3,0.6-0.4,1.3-0.4,2.1c0,0.7,0.1,1.4,0.4,2.1
		c0.3,0.6,0.6,1.2,1.1,1.6s1,0.8,1.6,1.1C455.5,135.1,456.2,135.2,456.9,135.2z"/>
	<path class="st2" d="M470,139v-17.9h4.1l8.1,10.4v-10.4h4.1V139h-3.9l-8.4-10.8V139H470z"/>
	<path class="st2" d="M377.1,169.6v-17.9h5.5l4.4,8.4l4.4-8.4h5.5v17.9h-4.1v-12.2l-5.9,10.9l-5.9-11v12.2H377.1z"/>
	<path class="st2" d="M399.6,169.6l7.3-17.9h5l7.2,17.9h-4.8l-1.6-4.3h-7l-1.7,4.3H399.6z M407.2,161.8h4.3l-2.1-5.7L407.2,161.8z"
		/>
	<path class="st2" d="M421.8,169.6v-17.9h4.1l8.1,10.4v-10.4h4.1v17.9h-3.9l-8.4-10.8v10.8H421.8z"/>
	<path class="st2" d="M440.8,169.6l7.3-17.9h5l7.2,17.9h-4.8l-1.6-4.3h-7l-1.7,4.3H440.8z M448.4,161.8h4.3l-2.1-5.7L448.4,161.8z"
		/>
	<path class="st2" d="M470.9,169.9c-1.3,0-2.6-0.2-3.8-0.7c-1.2-0.5-2.2-1.1-3.1-2c-0.9-0.8-1.6-1.8-2-2.9c-0.5-1.1-0.7-2.3-0.7-3.6
		c0-1.3,0.2-2.5,0.7-3.6c0.5-1.1,1.2-2.1,2-2.9c0.9-0.8,1.9-1.5,3-2c1.2-0.5,2.4-0.7,3.7-0.7c1.5,0,2.9,0.3,4.3,0.9
		c1.3,0.6,2.4,1.5,3.3,2.6l-3.1,2.8c-0.6-0.7-1.2-1.3-2-1.7c-0.8-0.4-1.6-0.6-2.5-0.6c-0.7,0-1.4,0.1-2,0.4
		c-0.6,0.3-1.1,0.6-1.6,1.1s-0.8,1-1,1.6c-0.2,0.6-0.4,1.3-0.4,2.1c0,0.8,0.1,1.4,0.4,2.1c0.3,0.6,0.6,1.2,1.1,1.7
		c0.5,0.5,1,0.8,1.6,1.1c0.6,0.3,1.3,0.4,2,0.4c0.7,0,1.3-0.1,1.9-0.4c0.6-0.2,1.1-0.6,1.5-1s0.7-0.9,0.9-1.5h-4.8v-3.8h9.6v1.3
		c0,1.3-0.2,2.6-0.7,3.7c-0.5,1.1-1.1,2.1-1.9,3c-0.8,0.8-1.8,1.5-2.9,2S472.2,169.9,470.9,169.9z"/>
	<path class="st2" d="M483.6,169.6v-17.9h14.1v3.8H488v3.2h6.4v3.7H488v3.4h9.8v3.8H483.6z"/>
	<path class="st2" d="M501.6,169.6v-17.9h5.5l4.4,8.4l4.4-8.4h5.5v17.9h-4.1v-12.2l-5.9,10.9l-5.9-11v12.2H501.6z"/>
	<path class="st2" d="M525.8,169.6v-17.9h14.1v3.8h-9.7v3.2h6.4v3.7h-6.4v3.4h9.8v3.8H525.8z"/>
	<path class="st2" d="M543.9,169.6v-17.9h4.1l8.1,10.4v-10.4h4.1v17.9h-3.9l-8.4-10.8v10.8H543.9z"/>
	<path class="st2" d="M569.4,169.6v-14h-5.9v-3.9h16.1v3.9h-5.9v14H569.4z"/>
</g>
<line class="st3" x1="344.3" y1="112.1" x2="344.3" y2="178.1"/>
</svg>
